<!--?xml version="1.0" standalone="no"?-->
              <svg id="sw-js-blob-svg" viewBox="0 0 100 100" xmlns="http://www.w3.org/2000/svg" version="1.1">
                    <defs> 
                        <linearGradient id="sw-gradient" x1="0" x2="1" y1="1" y2="0">
                            <stop id="stop1" stop-color="rgba(195, 7, 63, 1)" offset="0%"></stop>
                            <stop id="stop2" stop-color="rgba(149, 7, 64, 1)" offset="100%"></stop>
                        </linearGradient>
                    </defs>
                <path fill="none" d="M24.9,-27.9C31.1,-24.4,34.3,-15.5,35.3,-6.7C36.2,2.1,35,10.8,30.8,17.4C26.5,24.1,19.3,28.6,11.2,32.1C3.2,35.5,-5.7,37.9,-11.2,34.3C-16.6,30.8,-18.6,21.3,-22.2,13.6C-25.8,5.8,-30.9,-0.3,-31.1,-6.6C-31.3,-12.8,-26.5,-19.3,-20.5,-22.8C-14.4,-26.3,-7.2,-26.8,1.1,-28C9.3,-29.3,18.7,-31.3,24.9,-27.9Z" width="100%" height="100%" transform="translate(50 50)" stroke-width="1" style="transition: 0.3s;" stroke="url(#sw-gradient)"></path>
              </svg>