<!--?xml version="1.0" standalone="no"?-->
              <svg id="sw-js-blob-svg" viewBox="0 0 100 100" xmlns="http://www.w3.org/2000/svg" version="1.1">
                    <defs> 
                        <linearGradient id="sw-gradient" x1="0" x2="1" y1="1" y2="0">
                            <stop id="stop1" stop-color="rgba(195, 7, 63, 1)" offset="0%"></stop>
                            <stop id="stop2" stop-color="rgba(149, 7, 64, 1)" offset="100%"></stop>
                        </linearGradient>
                    </defs>
                <path fill="none" d="M16.9,-18.2C24.6,-13.8,35.2,-10.9,38,-5.2C40.8,0.5,35.7,9.1,30.3,16.7C25,24.3,19.3,31,11.5,35.5C3.7,40,-6.2,42.2,-12.1,38C-18,33.8,-19.7,23.1,-24.8,14.3C-29.9,5.5,-38.4,-1.4,-38.7,-8.1C-39,-14.7,-31.1,-21.2,-23.3,-25.6C-15.5,-30,-7.8,-32.2,-1.6,-30.4C4.6,-28.5,9.3,-22.6,16.9,-18.2Z" width="100%" height="100%" transform="translate(50 50)" stroke-width="1" style="transition: 0.3s;" stroke="url(#sw-gradient)"></path>
              </svg>