<!--?xml version="1.0" standalone="no"?-->
              <svg id="sw-js-blob-svg" viewBox="0 0 100 100" xmlns="http://www.w3.org/2000/svg" version="1.1">
                    <defs> 
                        <linearGradient id="sw-gradient" x1="0" x2="1" y1="1" y2="0">
                            <stop id="stop1" stop-color="rgba(195, 7, 63, 1)" offset="0%"></stop>
                            <stop id="stop2" stop-color="rgba(149, 7, 64, 1)" offset="100%"></stop>
                        </linearGradient>
                    </defs>
                <path fill="none" d="M19.7,-28.5C25,-27.2,28.4,-20.9,30.4,-14.5C32.3,-8.1,32.8,-1.7,31.1,3.9C29.4,9.5,25.6,14.2,22.1,20.3C18.6,26.5,15.4,34.1,10.3,36.1C5.1,38.1,-2,34.5,-6.2,29.5C-10.4,24.4,-11.7,17.8,-16.1,13.5C-20.6,9.2,-28.3,7.2,-32.4,2.4C-36.6,-2.3,-37.3,-9.9,-34.2,-15.2C-31.1,-20.5,-24.1,-23.6,-17.8,-24.4C-11.5,-25.2,-5.7,-23.6,0.7,-24.8C7.2,-25.9,14.4,-29.7,19.7,-28.5Z" width="100%" height="100%" transform="translate(50 50)" stroke-width="1" style="transition: 0.3s;" stroke="url(#sw-gradient)"></path>
              </svg>